<svg width="200" height="170" viewBox="0 0 200 170" fill="none" xmlns="http://www.w3.org/2000/svg">
<path d="M108.787 109.664V109.104C108.787 108.931 108.647 108.791 108.474 108.791H95.4858C94.8307 108.791 94.2995 109.322 94.2995 109.978V110.932C94.2995 111.588 94.8307 112.119 95.4858 112.119H108.474C108.647 112.119 108.787 111.978 108.787 111.805V111.246C108.787 111.073 108.647 110.932 108.474 110.932H95.9628C95.6992 110.932 95.4854 110.719 95.4854 110.456C95.4854 110.192 95.6992 109.979 95.9628 109.979H108.474C108.647 109.978 108.787 109.837 108.787 109.664Z" fill="#6277D7"/>
<path d="M108.226 109.978V110.932H95.9628C95.6992 110.932 95.4854 110.718 95.4854 110.455C95.4854 110.192 95.6992 109.978 95.9628 109.978H108.226V109.978Z" fill="#D2DCFF"/>
<path d="M107.859 106.337V105.777C107.859 105.604 107.719 105.464 107.546 105.464H96.4135C95.7584 105.464 95.2271 105.995 95.2271 106.65V107.604C95.2271 108.259 95.7584 108.791 96.4135 108.791H107.546C107.719 108.791 107.859 108.651 107.859 108.478V107.918C107.859 107.745 107.719 107.605 107.546 107.605H96.8909C96.6273 107.605 96.4135 107.391 96.4135 107.128C96.4135 106.864 96.6273 106.65 96.8909 106.65H107.546C107.719 106.65 107.859 106.51 107.859 106.337Z" fill="#FE9ECC"/>
<path d="M107.446 106.65V107.604H96.8909C96.6273 107.604 96.4135 107.391 96.4135 107.127C96.4135 106.864 96.6273 106.65 96.8909 106.65H107.446Z" fill="#FFD9E8"/>
<path d="M98.4234 114.315L91.5414 169.956H90.1749L97.0569 114.315H98.4234Z" fill="#D2DCFF"/>
<path d="M116.506 169.956H115.14L109.252 122.354L108.258 114.315H109.624L110.605 122.24L116.506 169.956Z" fill="#D2DCFF"/>
<path d="M29.8987 114.315L28.0577 129.201L23.0167 169.956H21.6502L26.6766 129.318L28.5322 114.315H29.8987Z" fill="#D2DCFF"/>
<path d="M47.9817 169.956H46.6152L41.435 128.073L39.7332 114.315H41.0997L42.7873 127.959L47.9817 169.956Z" fill="#D2DCFF"/>
<path d="M28.5322 114.315H29.8987L28.0577 129.201L26.6766 129.318L28.5322 114.315Z" fill="#AEC3FF"/>
<path d="M41.0997 114.315L42.7873 127.959L41.435 128.073L39.7332 114.315H41.0997Z" fill="#AEC3FF"/>
<path d="M110.605 122.24L109.252 122.354L108.258 114.315H109.624L110.605 122.24Z" fill="#AEC3FF"/>
<path d="M113.43 114.315H43.559V112.119H113.43C113.934 112.119 114.343 112.528 114.343 113.032V113.401C114.343 113.905 113.934 114.315 113.43 114.315Z" fill="#D2DCFF"/>
<path d="M43.559 114.315H25.072C24.5675 114.315 24.1585 113.906 24.1585 113.401V113.032C24.1585 112.528 24.5675 112.119 25.072 112.119H43.559V114.315Z" fill="#86A2E2"/>
<path d="M43.5436 106.779H49.6725C49.9749 106.779 50.209 107.043 50.1733 107.343L49.6551 111.674C49.6247 111.928 49.4097 112.118 49.1542 112.118H44.0623C43.8068 112.118 43.5918 111.928 43.5614 111.674L43.0432 107.343C43.0071 107.043 43.2416 106.779 43.5436 106.779Z" fill="#D2DCFF"/>
<path d="M48.7121 105.012V103.042L47.5338 105.281V101.645L46.6082 103.934L45.6823 101.645V105.281L44.504 103.042V105.012L42.7873 102.251L43.5436 106.779H46.6082H49.6725L50.4288 102.251L48.7121 105.012Z" fill="#6277D7"/>
<path d="M92.9104 106.493H54.5669L58.8418 83.4487H97.1852L92.9104 106.493Z" fill="#D2DCFF"/>
<path d="M73.5507 96.315H77.8572L83.5269 112.118H76.004L73.5507 96.315Z" fill="#86A2E2"/>
<path d="M73.3957 111.104H60.597C60.3638 111.104 60.1747 111.293 60.1747 111.526V111.697C60.1747 111.93 60.3638 112.118 60.597 112.118H73.3957C73.6289 112.118 73.818 111.929 73.818 111.697V111.526C73.8176 111.293 73.6285 111.104 73.3957 111.104Z" fill="#86A2E2"/>
<path d="M73.5507 96.315V106.493H75.1306L73.5507 96.315Z" fill="#AEC3FF"/>
<path d="M133.247 135.571L137.395 169.956H138.755L134.608 135.571H133.247Z" fill="#D2DCFF"/>
<path d="M151.576 135.571L152.042 139.438L155.723 169.955H157.083L153.384 139.286L152.936 135.571H151.576Z" fill="#D2DCFF"/>
<path d="M133.247 169.955H134.608L135.181 165.2L135.861 159.561L138.098 141.014L138.755 135.571H137.395L136.719 141.17L135.181 153.922L134.501 159.561L133.247 169.955Z" fill="#D2DCFF"/>
<path d="M114.919 169.955H116.279L119.498 143.267H119.499L120.427 135.571H119.066L118.12 143.416L114.919 169.955Z" fill="#D2DCFF"/>
<path d="M152.87 112.585H151.509V133.385H152.87V112.585Z" fill="#D2DCFF"/>
<path d="M134.385 112.585H133.025V133.385H134.385V112.585Z" fill="#D2DCFF"/>
<path d="M118.495 133.385H137.185C136.581 133.385 136.092 133.874 136.092 134.477C136.092 135.081 136.581 135.571 137.185 135.571H118.495C117.892 135.571 117.402 135.081 117.402 134.477C117.402 133.874 117.892 133.385 118.495 133.385Z" fill="#D2DCFF"/>
<path d="M136.092 134.477C136.092 133.874 136.581 133.385 137.185 133.385H151.481H153.322C153.926 133.385 154.415 133.874 154.415 134.477C154.415 135.081 153.926 135.571 153.322 135.571H151.481H137.185C136.581 135.571 136.092 135.081 136.092 134.477Z" fill="#86A2E2"/>
<path d="M131.914 96.9324H153.981C154.822 96.9324 155.505 97.6147 155.505 98.4557V111.062C155.505 111.903 154.822 112.585 153.981 112.585H131.914C131.073 112.585 130.39 111.903 130.39 111.062V98.4557C130.39 97.6143 131.073 96.9324 131.914 96.9324Z" fill="#D2DCFF"/>
<path d="M151.576 135.571L152.042 139.438C152.534 139.382 152.983 139.332 153.384 139.287L152.936 135.571H151.576Z" fill="#AEC3FF"/>
<path d="M137.395 135.571L136.719 141.17C137.181 141.118 137.641 141.066 138.098 141.015L138.755 135.571H137.395Z" fill="#AEC3FF"/>
<path d="M118.12 143.416C118.559 143.369 119.019 143.319 119.498 143.267H119.499L120.427 135.571H119.066L118.12 143.416Z" fill="#AEC3FF"/>
<path d="M152.87 112.585H151.509V115.458L152.87 115.307V112.585Z" fill="#AEC3FF"/>
<path d="M133.025 112.585V117.504L134.385 117.353V112.585H133.025Z" fill="#AEC3FF"/>
<path d="M125.659 80.0484C126.164 86.1748 130.615 90.0157 133.227 90.0157C133.619 90.0157 134.046 89.9456 134.491 89.8233V92.879H141.116V85.1099C141.177 84.9492 141.237 84.7711 141.295 84.5812C144.232 84.3006 144.11 79.4468 142.365 79.4468C142.048 79.4468 141.835 79.7467 141.702 80.0488L141.269 80.482V78.2891C141.269 78.2891 140.294 78.3807 138.375 75.4565C137.547 76.7125 130.943 78.6852 125.643 77.8017C125.643 77.8017 125.629 78.8924 125.659 80.0484Z" fill="#FCBEB7"/>
<path d="M133.684 69.4863C138.253 69.4863 139.167 71.923 139.167 71.923C141.116 71.923 144.101 75.4869 142.304 79.4463L142.295 79.4556L141.268 80.482V78.2891C141.268 78.2891 140.294 78.3807 138.374 75.4565C137.546 76.7125 130.942 78.6851 125.642 77.8017C125.642 77.8017 125.629 78.8924 125.659 80.0483C125.659 80.0496 125.659 80.0508 125.659 80.052C123.68 74.3256 127.653 69.4863 133.684 69.4863Z" fill="#311643"/>
<path d="M135.649 81.721C135.851 81.721 136.014 81.5574 136.014 81.3554V80.6727C136.014 80.4707 135.851 80.3072 135.649 80.3072C135.447 80.3072 135.283 80.4707 135.283 80.6727V81.3554C135.283 81.5574 135.447 81.721 135.649 81.721Z" fill="#311643"/>
<path d="M128.871 81.721C129.074 81.721 129.237 81.5574 129.237 81.3554V80.6727C129.237 80.4707 129.074 80.3072 128.871 80.3072C128.669 80.3072 128.506 80.4707 128.506 80.6727V81.3554C128.506 81.5574 128.669 81.721 128.871 81.721Z" fill="#311643"/>
<path d="M132.961 85.9873C133.614 85.9873 134.058 85.742 134.327 85.5185C134.666 85.2367 134.807 84.9293 134.813 84.9164C134.851 84.8322 134.814 84.733 134.73 84.695C134.645 84.6569 134.546 84.6946 134.508 84.7784C134.489 84.8197 134.026 85.7914 132.68 85.6355C132.588 85.6254 132.505 85.6906 132.494 85.7829C132.483 85.8752 132.549 85.9578 132.641 85.9684C132.753 85.9813 132.86 85.9873 132.961 85.9873Z" fill="#311643"/>
<path d="M138.075 84.7516C139.073 84.7516 139.883 83.9424 139.883 82.9442C139.883 81.946 139.073 81.1367 138.075 81.1367C137.077 81.1367 136.268 81.946 136.268 82.9442C136.268 83.9424 137.077 84.7516 138.075 84.7516Z" fill="#F49795"/>
<path d="M125.847 81.4437C126.076 82.6575 126.46 83.7642 126.946 84.7493C127.902 84.7019 128.662 83.9119 128.662 82.9442C128.662 81.9462 127.853 81.1371 126.855 81.1371C126.482 81.1367 126.135 81.2501 125.847 81.4437Z" fill="#F49795"/>
<path d="M126.31 80.0087C126.31 81.421 127.46 82.5697 128.871 82.5697C130.251 82.5697 131.379 81.4728 131.43 80.1055C132.196 79.6719 132.878 79.9832 133.09 80.1034C133.14 81.472 134.268 82.5697 135.648 82.5697C137.06 82.5697 138.209 81.421 138.209 80.0087C138.209 78.5964 137.06 77.4478 135.648 77.4478C134.329 77.4478 133.24 78.4503 133.102 79.7334C132.768 79.58 132.135 79.3969 131.417 79.7346C131.28 78.4507 130.191 77.4478 128.871 77.4478C127.459 77.4478 126.31 78.5964 126.31 80.0087ZM133.422 80.0087C133.422 78.7811 134.421 77.7826 135.649 77.7826C136.876 77.7826 137.875 78.7811 137.875 80.0087C137.875 81.236 136.876 82.2348 135.649 82.2348C134.421 82.2348 133.422 81.2364 133.422 80.0087ZM126.645 80.0087C126.645 78.7811 127.644 77.7826 128.871 77.7826C130.099 77.7826 131.098 78.7811 131.098 80.0087C131.098 81.236 130.099 82.2348 128.871 82.2348C127.644 82.2348 126.645 81.2364 126.645 80.0087Z" fill="white"/>
<path d="M134.491 92.879V89.8234C135.989 89.4116 137.695 88.403 138.977 87.4413L134.491 92.879Z" fill="#F9AFAB"/>
<path d="M115.668 145.114L117.052 144.925L118.361 134.065H117.001L115.668 145.114Z" fill="#EBEDF4"/>
<path d="M119.342 103.613L118.141 105.916H124.544L119.342 103.613Z" fill="#FCBEB7"/>
<path d="M131.607 163.951V168.909C131.607 169.487 131.138 169.956 130.559 169.956H116.496C116.362 169.956 116.254 169.847 116.254 169.713V168.8C116.254 168.359 116.511 167.958 116.912 167.774L125.044 163.95H131.607V163.951Z" fill="#2F3D6C"/>
<path d="M131.607 161.13L131.603 163.951H125.044L124.59 161.13H131.607Z" fill="#FCBEB7"/>
<path d="M134.503 89.997L125.598 94.0193C124.373 94.5724 123.377 95.5307 122.777 96.7329L119.342 103.613L124.544 105.916L124.113 121.124H150.034L148.903 106.92L153.591 106.951V99.1796C153.591 96.7725 152.144 94.6015 149.923 93.6739L141.116 89.9966C141.116 89.997 137.269 92.522 134.503 89.997Z" fill="#89AEFF"/>
<path d="M132.372 90.9222C133.778 92.1 135.535 92.7414 137.39 92.7414C139.344 92.7414 141.27 91.9616 142.71 90.6627L142.427 90.5444C141.048 91.7535 139.24 92.4733 137.39 92.4733C135.643 92.4733 133.987 91.885 132.647 90.8024L132.372 90.9222Z" fill="white"/>
<path d="M117.805 163.951V168.909C117.805 169.487 117.336 169.956 116.758 169.956H102.694C102.561 169.956 102.452 169.847 102.452 169.713V168.8C102.452 168.359 102.709 167.958 103.11 167.774L111.242 163.95H117.805V163.951Z" fill="#2F3D6C"/>
<path d="M117.805 161.13L117.802 163.951H111.242L110.789 161.13H117.805Z" fill="#FCBEB7"/>
<path d="M136.234 121.124L136.234 121.389C136.239 128.05 130.841 133.452 124.18 133.452H118.58L117.805 161.129H110.788L105.615 128.129C105.038 124.449 107.883 121.124 111.608 121.124H136.234V121.124Z" fill="#6277D7"/>
<path d="M105.541 127.204C106.145 128.088 107.162 128.669 108.314 128.669C110.169 128.669 111.672 127.165 111.672 125.31C111.672 123.529 110.285 122.072 108.533 121.959C106.723 123.026 105.531 125.002 105.541 127.204Z" fill="#4A5EA3"/>
<path d="M119.343 127.075L118.58 133.453H123.174L119.343 127.075Z" fill="#4A5EA3"/>
<path d="M150.035 121.124V121.389C150.041 128.05 144.642 133.452 137.981 133.452H132.381L131.606 161.129H124.59L119.416 128.129C118.839 124.449 121.685 121.124 125.409 121.124H150.035V121.124Z" fill="#6277D7"/>
<path d="M153.59 106.951L153.341 115.564C153.274 117.892 151.367 119.745 149.038 119.745H134.044L133.038 116.238L146.263 114.058L146.357 106.904L153.59 106.951Z" fill="#FCBEB7"/>
<path d="M149.144 117.953C149.144 118.634 149.45 119.244 149.932 119.651C151.482 119.324 152.727 118.162 153.169 116.652C152.765 116.093 152.109 115.73 151.367 115.73C150.139 115.73 149.144 116.725 149.144 117.953Z" fill="#F9AFAB"/>
<path d="M146.357 106.905L144.326 114.377L146.263 114.058L146.357 106.905Z" fill="#4A62D3"/>
<path d="M134.885 115.933L137.249 119.745H134.044L133.038 116.238L134.885 115.933Z" fill="#F9AFAB"/>
<path d="M109.121 105.916H128.671C129.502 105.916 130.233 106.466 130.462 107.265L134.044 119.744H141.972C142.353 119.744 142.662 120.053 142.662 120.434C142.662 120.815 142.353 121.124 141.972 121.124H134.44H132.045H111.014L107.33 108.293C106.988 107.103 107.882 105.916 109.121 105.916Z" fill="#4A5EA3"/>
<path d="M119.343 127.075C119.935 128.032 120.993 128.668 122.2 128.668C124.055 128.668 125.559 127.165 125.559 125.31C125.559 123.503 124.131 122.029 122.341 121.955C120.563 123 119.38 124.922 119.343 127.075Z" fill="#4A5EA3"/>
<path d="M119.986 115.121C120.385 115.086 120.667 114.585 120.616 114.002C120.565 113.419 120.199 112.975 119.8 113.01C119.401 113.045 119.119 113.546 119.17 114.129C119.221 114.712 119.587 115.156 119.986 115.121Z" fill="#89AEFF"/>
<path d="M149.658 96.8369C149.658 97.9228 150.538 98.8035 151.624 98.8035C152.408 98.8035 153.083 98.3455 153.4 97.6831C153.122 96.6097 152.55 95.6376 151.755 94.8752C151.712 94.872 151.668 94.8708 151.624 94.8708C150.538 94.8708 149.658 95.751 149.658 96.8369Z" fill="#4A62D3"/>
<path d="M122.898 96.503C123.212 96.7139 123.589 96.837 123.995 96.837C125.081 96.837 125.961 95.9563 125.961 94.8708C125.961 94.5408 125.88 94.2298 125.737 93.9569L125.598 94.0197C124.452 94.5368 123.507 95.4085 122.898 96.503Z" fill="#4A62D3"/>
<path d="M31.1405 150.821H12.0056V169.955H31.1405V150.821Z" fill="#D2DCFF"/>
<path d="M12.006 150.821H1.46542V169.956H12.006V150.821Z" fill="#AEC3FF"/>
<path d="M12.006 154.093H1.46539V154.653H12.006V154.093Z" fill="#86A2E2"/>
<path d="M31.1405 154.093H12.0056V154.653H31.1405V154.093Z" fill="#AEC3FF"/>
<path d="M25.0938 157.392H18.0527C17.9191 157.392 17.8106 157.284 17.8106 157.15V157.136C17.8106 157.003 17.9191 156.894 18.0527 156.894H25.0938C25.2274 156.894 25.3359 157.003 25.3359 157.136V157.15C25.3359 157.284 25.2274 157.392 25.0938 157.392Z" fill="#86A2E2"/>
<path d="M192.615 150.227L182.838 145.483L178.728 153.956L188.505 158.699L192.615 150.227Z" fill="#4A5EA3"/>
<path d="M182.354 146.69L171.573 148.05L172.751 157.392L183.532 156.033L182.354 146.69Z" fill="#4A5EA3"/>
<path d="M196.092 150.821H176.957V169.955H196.092V150.821Z" fill="#D2DCFF"/>
<path d="M176.957 150.821H166.416V169.955H176.957V150.821Z" fill="#AEC3FF"/>
<path d="M166.416 150.821L160.941 156.686H172.834L176.957 150.821H166.416Z" fill="#86A2E2"/>
<path d="M196.092 150.821L200 156.762H180.893L176.957 150.793L196.092 150.821Z" fill="#AEC3FF"/>
<path d="M181.017 146.923L180.247 150.798L182.326 146.758L181.017 146.923Z" fill="#2F3D6C"/>
<path d="M93.2873 36.8668H51.9488C50.5374 36.8668 49.3932 35.7226 49.3932 34.3111V2.5557C49.3932 1.14424 50.5374 0 51.9488 0H93.2873C94.6988 0 95.843 1.14424 95.843 2.5557V34.3111C95.8426 35.7226 94.6984 36.8668 93.2873 36.8668Z" fill="#D2DCFF"/>
<path d="M93.2873 47.3054H51.9488C50.5374 47.3054 49.3931 46.1612 49.3931 44.7497V30.4225H95.8426V44.7497C95.8426 46.1612 94.6984 47.3054 93.2873 47.3054Z" fill="#6277D7"/>
<path d="M80.385 36.8669H57.1724C56.7906 36.8669 56.4812 36.5575 56.4812 36.1757C56.4812 35.7939 56.7906 35.4845 57.1724 35.4845H80.385C80.7668 35.4845 81.0761 35.7939 81.0761 36.1757C81.0761 36.5571 80.7668 36.8669 80.385 36.8669Z" fill="#D2DCFF"/>
<path d="M69.4358 40.636H57.1724C56.7906 40.636 56.4812 40.3266 56.4812 39.9448C56.4812 39.563 56.7906 39.2537 57.1724 39.2537H69.4358C69.8176 39.2537 70.127 39.563 70.127 39.9448C70.127 40.3266 69.8176 40.636 69.4358 40.636Z" fill="#D2DCFF"/>
<path d="M87.2078 15.7293H74.9444C74.5626 15.7293 74.2532 15.42 74.2532 15.0381C74.2532 14.6563 74.5626 14.3471 74.9444 14.3471H87.2078C87.5896 14.3471 87.899 14.6563 87.899 15.0381C87.899 15.42 87.5896 15.7293 87.2078 15.7293Z" fill="#6277D7"/>
<path d="M81.1332 19.4989H74.9444C74.5626 19.4989 74.2532 19.1895 74.2532 18.8077C74.2532 18.4259 74.5626 18.1165 74.9444 18.1165H81.1332C81.515 18.1165 81.8244 18.4259 81.8244 18.8077C81.8244 19.1895 81.5146 19.4989 81.1332 19.4989Z" fill="#6277D7"/>
<path d="M63.2053 23.0823C63.2053 22.6085 63.5895 22.2242 64.0633 22.2242C60.7249 22.2242 58.0089 19.5082 58.0089 16.1699C58.0089 12.8315 60.7249 10.1155 64.0633 10.1155C67.4016 10.1155 70.1177 12.8315 70.1177 16.1699C70.1177 15.6962 70.5019 15.3119 70.9756 15.3119C71.4494 15.3119 71.8336 15.6962 71.8336 16.1699C71.8336 11.8853 68.3479 8.39999 64.0637 8.39999C59.7791 8.39999 56.2938 11.8857 56.2938 16.1699C56.2938 20.4541 59.7795 23.9398 64.0637 23.9398C63.5891 23.9402 63.2053 23.556 63.2053 23.0823Z" fill="#89AEFF"/>
<path d="M70.9752 15.3122C70.5015 15.3122 70.1172 15.6965 70.1172 16.1702C70.1172 19.5086 67.4012 22.2245 64.0628 22.2245C63.5891 22.2245 63.2049 22.6084 63.2049 23.0826C63.2049 23.5563 63.5891 23.9405 64.0628 23.9405C68.3474 23.9405 71.8328 20.4548 71.8328 16.1706C71.8332 15.6965 71.4489 15.3122 70.9752 15.3122Z" fill="#6277D7"/>
<path d="M106.067 30.2521V45.781C106.067 46.6228 106.749 47.3054 107.591 47.3054H132.194C133.036 47.3054 133.718 46.6228 133.718 45.781V30.2521H106.067Z" fill="#89AEFF"/>
<path d="M108.777 23.9297H131.009C131.926 23.9297 132.669 25.1439 132.669 26.6412V39.9777C132.669 41.4754 131.926 42.6892 131.009 42.6892H108.777C107.86 42.6892 107.116 41.475 107.116 39.9777V26.6412C107.117 25.1439 107.86 23.9297 108.777 23.9297Z" fill="#D2DCFF"/>
<path d="M132.194 47.3054H107.591C106.75 47.3054 106.067 46.6228 106.067 45.781V30.2521L119.893 40.3704L133.719 30.2521V45.781C133.718 46.6228 133.036 47.3054 132.194 47.3054Z" fill="#6277D7"/>
<path d="M125.971 29.716H113.815C113.433 29.716 113.123 29.4067 113.123 29.0249C113.123 28.643 113.433 28.3337 113.815 28.3337H125.971C126.353 28.3337 126.662 28.643 126.662 29.0249C126.662 29.4067 126.353 29.716 125.971 29.716Z" fill="#89AEFF"/>
<path d="M122.958 32.7943H116.828C116.446 32.7943 116.137 32.4851 116.137 32.1033C116.137 31.7215 116.446 31.4121 116.828 31.4121H122.958C123.339 31.4121 123.649 31.7215 123.649 32.1033C123.648 32.4847 123.339 32.7943 122.958 32.7943Z" fill="#89AEFF"/>
<path d="M31.8328 46.9349C31.8328 42.5852 27.9965 39.0609 22.2437 39.0609C17.4627 39.0609 15.8197 41.6993 15.8197 41.6993C15.8197 41.6993 11.3007 42.6759 11.3007 48.2914C11.3007 53.5117 11.3007 62.4922 11.3007 62.4922H18.726H19.1046H24.5885H30.5497V50.7972C31.0206 50.219 31.8328 48.9327 31.8328 46.9349ZM22.9033 59.6526C22.5012 59.6526 22.0623 59.5785 21.6044 59.4494V62.4922H15.0342V54.664C14.9892 54.5385 14.9451 54.4041 14.9022 54.2628C11.9894 53.9846 12.11 49.1707 13.841 49.1707C13.8644 49.1707 13.8875 49.1727 13.9102 49.176V49.1756C21.1861 51.5017 26.0793 47.6904 27.6802 45.0424C27.6802 46.8904 29.7254 48.6922 30.453 48.8566C30.3453 55.46 25.621 59.6526 22.9033 59.6526Z" fill="#311643"/>
<path d="M21.6044 60.1648V59.4493C22.0624 59.5785 22.5013 59.6526 22.9033 59.6526C25.621 59.6526 30.3453 55.4604 30.4526 48.8562C29.725 48.6918 27.6799 46.8899 27.6799 45.042C26.0789 47.6904 21.1858 51.5013 13.9098 49.1752V49.1756C13.8871 49.1723 13.8645 49.1703 13.8406 49.1703C12.1097 49.1703 11.989 53.9841 14.9018 54.2622C14.9447 54.4035 14.9889 54.5376 15.0338 54.6636V59.9296L9.888 62.3553V68.7065H26.9879V61.7828L21.6044 60.1648Z" fill="#FCBEB7"/>
<path d="M26.9883 68.7064V61.7828L21.6048 60.1648V59.4493C20.0824 59.0197 18.3519 57.9791 17.0809 57.0082L26.9883 68.7064Z" fill="#F9AFAB"/>
<path d="M18.0956 54.432C19.0855 54.432 19.8881 53.6295 19.8881 52.6395C19.8881 51.6496 19.0855 50.8471 18.0956 50.8471C17.1056 50.8471 16.3031 51.6496 16.3031 52.6395C16.3031 53.6295 17.1056 54.432 18.0956 54.432Z" fill="#F49795"/>
<path d="M30.2221 51.1511C29.995 52.3548 29.614 53.4525 29.133 54.4291C28.1851 54.3821 27.4312 53.5987 27.4312 52.6391C27.4312 51.6491 28.2337 50.8466 29.2233 50.8466C29.5929 50.847 29.9367 50.9592 30.2221 51.1511Z" fill="#F49795"/>
<path d="M27.1903 47.188C25.8817 47.188 24.8011 48.1829 24.665 49.4563C23.9536 49.1214 23.3256 49.3028 22.994 49.4551C22.8572 48.1825 21.7773 47.188 20.4691 47.188C19.0686 47.188 17.9292 48.3274 17.9292 49.7279C17.9292 51.1284 19.0686 52.2679 20.4691 52.2679C21.8385 52.2679 22.9572 51.1786 23.0066 49.821C23.2175 49.6996 23.8876 49.3903 24.6525 49.8239C24.7031 51.1799 25.8218 52.2679 27.1899 52.2679C28.5905 52.2679 29.7298 51.1284 29.7298 49.7279C29.7306 48.3274 28.5909 47.188 27.1903 47.188ZM20.4691 51.9359C19.252 51.9359 18.2616 50.9454 18.2616 49.7283C18.2616 48.5108 19.252 47.5205 20.4691 47.5205C21.6866 47.5205 22.677 48.5108 22.677 49.7283C22.677 50.9454 21.6866 51.9359 20.4691 51.9359ZM27.1903 51.9359C25.9732 51.9359 24.9829 50.9454 24.9829 49.7283C24.9829 48.5108 25.9732 47.5205 27.1903 47.5205C28.4079 47.5205 29.3982 48.5108 29.3982 49.7283C29.3982 50.9454 28.4079 51.9359 27.1903 51.9359Z" fill="white"/>
<path d="M27.1919 50.4292C26.9919 50.4292 26.8296 50.2669 26.8296 50.0669V49.3894C26.8296 49.1894 26.9919 49.027 27.1919 49.027C27.392 49.027 27.5543 49.1894 27.5543 49.3894V50.0669C27.5547 50.2669 27.3924 50.4292 27.1919 50.4292Z" fill="#311643"/>
<path d="M20.5796 50.4292C20.3796 50.4292 20.2173 50.2668 20.2173 50.0668V49.3894C20.2173 49.1894 20.3796 49.027 20.5796 49.027C20.7797 49.027 20.942 49.1894 20.942 49.3894V50.0668C20.942 50.2668 20.7797 50.4292 20.5796 50.4292Z" fill="#311643"/>
<path d="M23.1673 55.6575C22.5203 55.6575 22.0798 55.4142 21.813 55.1927C21.4765 54.9133 21.3368 54.6084 21.3307 54.5954C21.2931 54.5116 21.3303 54.4136 21.4141 54.3756C21.4975 54.3379 21.5959 54.3752 21.6336 54.4582C21.6526 54.4991 22.1122 55.4627 23.4471 55.3084C23.5386 55.2979 23.6208 55.3631 23.6313 55.4546C23.6419 55.5461 23.5767 55.6284 23.4852 55.6389C23.3738 55.6514 23.2681 55.6575 23.1673 55.6575Z" fill="#311643"/>
<path d="M34.0023 161.098L34.6822 163.924L42.0966 166.252L41.0301 161.098H34.0023Z" fill="#FCBEB7"/>
<path d="M9.02282 161.098L9.22486 164.589L8.76328 164.759L8.4588 166.253L15.8655 163.924L16.0506 161.098H9.02282Z" fill="#FCBEB7"/>
<path d="M47.8145 167.35L41.7872 164.759L42.0961 166.252L34.6821 163.924V166.049C34.6821 166.796 35.0729 167.473 35.6871 167.854L36.3248 169.677C36.3798 169.834 36.5284 169.94 36.6957 169.94C36.9127 169.94 37.0884 169.764 37.0884 169.547V168.361L42.1557 169.94H47.2816C48.027 169.94 48.6311 169.336 48.6311 168.59C48.6311 168.05 48.3101 167.563 47.8145 167.35Z" fill="#2F3D6C"/>
<path d="M15.8719 166.028L15.8658 163.904L8.45872 166.254L8.7632 164.759L2.74364 167.368C2.24886 167.583 1.92899 168.071 1.93061 168.61C1.93263 169.356 2.53876 169.958 3.28417 169.956L8.41013 169.941L13.6499 168.292L13.6535 169.533C13.6543 169.75 13.8304 169.926 14.0475 169.925C14.2143 169.924 14.3629 169.818 14.4175 169.661L15.1091 167.665C15.5836 167.268 15.8739 166.673 15.8719 166.028Z" fill="#2F3D6C"/>
<path d="M10.1439 90.0314L7.40928 101.612C6.61974 104.956 6.30837 108.395 6.48531 111.827L9.02319 161.098H16.0509L19.0516 109.964L34.0027 161.098H41.0305L28.6565 90.031H10.1439V90.0314Z" fill="#6277D7"/>
<path d="M19.4427 65.5741C20.6906 65.5741 21.6887 64.3724 22.3616 63.1553H15.2452C16.3307 64.3692 17.8171 65.5741 19.4427 65.5741Z" fill="white"/>
<path d="M32.7577 65.6674C31.6608 63.9599 29.9927 62.6978 28.0512 62.1066L23.335 60.6705C23.335 60.8689 22.99 62.0188 22.3616 63.1554C21.6887 64.3725 20.6906 65.5741 19.4427 65.5741C17.8171 65.5741 16.3307 64.3692 15.2452 63.1554C14.1439 61.9237 13.456 60.6831 13.456 60.6831L8.55635 62.9529C6.55091 63.8821 5.07426 65.6698 4.54101 67.8149L0.926117 82.3513L7.57326 82.353L9.20458 76.7083L10.1439 90.0314H28.6565L30.3384 75.8508L34.7481 79.8171L38.4064 74.4588L32.7577 65.6674Z" fill="#FE9ECC"/>
<path d="M59.439 60.1648L59.1572 60.1179L59.113 59.9454C59.03 59.6206 58.7482 59.3858 58.4138 59.3631L54.4616 59.0963L51.7124 57.9784L53.2473 56.0628C53.5016 55.7453 53.466 55.285 53.166 55.0109L49.928 57.5058C49.6102 57.7504 49.3466 58.0586 49.1539 58.41L48.2639 60.0316L48.2599 60.0263L34.7481 79.818L36.6046 81.5141C38.1391 82.9162 40.5891 82.4607 41.5172 80.6002L50.2953 63.0031L53.4943 63.3076C54.2138 63.376 54.9398 63.3036 55.6318 63.0947L57.325 62.5828C57.6125 62.4958 57.7627 62.18 57.6481 61.9022L58.8543 61.6702C59.0794 61.6269 59.2499 61.4414 59.2742 61.213L59.2948 61.0179H59.3689C59.6058 61.0179 59.7981 60.826 59.7981 60.5887C59.7977 60.3781 59.6459 60.1992 59.439 60.1648Z" fill="#FCBEB7"/>
<path d="M38.4063 74.4592L33.2694 78.4874L34.7481 79.8176L38.4063 74.4592Z" fill="#FF78BA"/>
<path d="M19.6253 67.3055C18.5961 67.3055 17.549 66.9921 16.5125 66.3747C15.6897 65.8843 14.8718 65.2021 14.0815 64.3461C12.7401 62.8938 11.925 61.4107 11.9169 61.3957L12.1894 61.2694C12.1975 61.284 12.9899 62.7209 14.3074 64.1458C15.0775 64.979 15.8723 65.6418 16.6696 66.1164C17.6575 66.7047 18.6519 67.0027 19.6249 67.0027C20.5444 67.0027 21.3724 66.6954 22.0863 66.0897C22.6636 65.5993 23.1697 64.9134 23.5904 64.051C24.312 62.5711 24.5338 61.0507 24.5363 61.0357L24.829 61.1249C24.8201 61.188 24.6043 62.661 23.8621 64.1834C23.4232 65.0839 22.8916 65.8025 22.2822 66.32C21.5125 66.9739 20.6185 67.3055 19.6253 67.3055Z" fill="white"/>
<path d="M30.6571 129.351C32.5149 129.351 34.0209 127.845 34.0209 125.987C34.0209 124.129 32.5149 122.623 30.6571 122.623C28.7993 122.623 27.2932 124.129 27.2932 125.987C27.2932 127.845 28.7993 129.351 30.6571 129.351Z" fill="#4A5EA3"/>
<path d="M13.0329 129.351C14.8907 129.351 16.3967 127.845 16.3967 125.987C16.3967 124.129 14.8907 122.623 13.0329 122.623C11.1751 122.623 9.66901 124.129 9.66901 125.987C9.66901 127.845 11.1751 129.351 13.0329 129.351Z" fill="#4A5EA3"/>
<path d="M32.3021 65.0243C31.9632 65.2478 31.5571 65.3778 31.1206 65.3778C29.9343 65.3778 28.9719 64.4162 28.9719 63.2295C28.9719 62.974 29.0164 62.729 29.0986 62.5018C30.3521 63.0715 31.4518 63.9364 32.3021 65.0243Z" fill="#FF78BA"/>
<path d="M8.58549 64.4486C8.58549 65.6349 7.62386 66.5973 6.43671 66.5973C5.96015 66.5973 5.52003 66.4423 5.16373 66.1795C5.83342 64.9057 6.87036 63.8489 8.15306 63.1557C8.42474 63.5153 8.58549 63.9631 8.58549 64.4486Z" fill="#FF78BA"/>
<path d="M15.3468 94.0736L30.777 93.4909C31.0547 93.4803 31.2709 93.2468 31.2608 92.9694L30.4352 71.1132C30.4247 70.8355 30.1911 70.6192 29.9137 70.6294L14.4836 71.212C14.2059 71.2225 13.9896 71.4562 13.9998 71.7335L14.8253 93.5897C14.8355 93.8675 15.0691 94.0841 15.3468 94.0736Z" fill="#4A5EA3"/>
<path d="M15.2982 92.8948L30.6502 94.5528C30.9263 94.5824 31.1745 94.3827 31.2045 94.1066L33.5529 72.3614C33.5828 72.0853 33.3828 71.837 33.1067 71.8071L17.7547 70.149C17.4786 70.1191 17.2304 70.3191 17.2004 70.5953L14.852 92.3405C14.8225 92.6171 15.0221 92.8652 15.2982 92.8948Z" fill="#4A5EA3"/>
<path d="M33.5622 84.2046C33.55 83.9123 33.4201 83.637 33.2018 83.4418L32.9135 83.1839L32.9002 83.0474C32.8492 82.5324 32.4285 82.1327 31.9118 82.1072L30.0461 82.0158L31.0292 80.4978C31.0952 80.3962 31.1154 80.2714 31.0855 80.154C31.0122 79.869 30.6826 79.7378 30.4336 79.8949L25.1201 83.2475L7.57366 82.3531L0.926103 82.3514L0.125222 85.1849C-0.500339 87.3976 1.30549 89.5432 3.59233 89.3047L25.1201 87.0623L31.2417 88.0033L31.5142 87.9297C31.9835 87.8029 32.3111 87.379 32.3155 86.8931L32.3192 86.5149L32.3297 86.5101C32.7309 86.3307 32.984 85.9267 32.9706 85.4873L32.9638 85.265L33.1889 85.0699C33.4383 84.8533 33.576 84.5346 33.5622 84.2046Z" fill="#FCBEB7"/>
<path d="M4.13731 87.4239C4.13731 88.2244 3.715 88.926 3.08094 89.3188C1.41035 89.2354 0.101728 87.8822 0.00576782 86.2695C0.396086 85.6265 1.10303 85.1974 1.91039 85.1974C3.14005 85.197 4.13731 86.1938 4.13731 87.4239Z" fill="#F9AFAB"/>
<path d="M41.0944 81.2399C40.0198 82.5008 38.0844 82.7231 36.7462 81.6352C36.8665 80.5189 37.8119 79.6495 38.9598 79.6495C39.9688 79.6495 40.8207 80.3204 41.0944 81.2399Z" fill="#F9AFAB"/>
<path d="M16.1396 94.0435C16.1396 94.0435 29.8469 96.8717 29.8444 96.8579C29.842 96.8441 29.4201 94.42 29.4201 94.42L23.3945 93.7694L16.1396 94.0435Z" fill="#4A5EA3"/>
<path d="M15.8396 71.1605L15.8849 82.7765L17.145 71.1114L15.8396 71.1605Z" fill="#2F3D6C"/>
</svg>
