<svg width="300" height="182" viewBox="0 0 300 182" fill="none" xmlns="http://www.w3.org/2000/svg">
<g clip-path="url(#clip0_107:559)">
<g opacity="0.55">
<path opacity="0.55" d="M268.424 128.014L276.298 122.937C279.185 118.766 281.659 114.324 283.684 109.672C280.258 108.794 273.166 112.414 273.166 112.414C280.186 108.129 282.709 107.616 285.014 106.22C287.045 100.342 286.268 93.8693 286.324 88.3258C279.049 95.2603 276.917 96.4735 276.917 96.4735C281.527 92.7423 283.913 88.7268 286.319 85.9195C285.948 72.1267 281.552 67.7305 281.552 67.7305C278.141 70.086 271.171 76.3605 268.424 78.6703C267.877 83.5239 267.63 88.4066 267.683 93.2906C266.825 89.5949 266.668 84.1123 266.729 80.1323C262.815 83.5843 263.485 83.0665 260.784 86.5084C259.688 93.1078 260.581 104.53 260.581 104.53C259.266 100.184 258.84 93.1992 258.703 89.3258C254.615 95.2036 251.6 101.759 249.799 108.688C250.545 114.338 251.905 119.988 251.905 119.988C250.696 117.292 249.746 114.487 249.068 111.612C247.276 119.333 246.463 127.577 245.514 136.74L246.768 144.553L256.271 141.055C263.5 137.598 269.47 131.918 274.12 125.861L268.424 128.014Z" fill="#2A94F4"/>
</g>
<g opacity="0.55">
<path opacity="0.55" d="M261.114 154.452L270.44 153.386C274.887 150.935 279.085 148.057 282.973 144.792C280.293 142.487 272.313 142.568 272.313 142.568C280.501 141.857 282.973 142.517 285.674 142.294C290.091 137.923 292.274 131.786 294.812 126.846C285.166 129.836 282.73 129.983 282.73 129.983C288.522 128.689 292.441 126.156 295.847 124.709C301.65 112.19 299.665 106.297 299.665 106.297C295.563 106.896 286.532 109.408 283.039 110.261C280.395 114.366 278.003 118.628 275.877 123.024C276.75 119.333 279.07 114.363 280.877 110.84C275.831 112.19 276.663 112.028 272.714 113.886C268.79 119.328 264.52 129.938 264.52 129.938C265.277 125.46 267.998 119.013 269.597 115.48C263.322 118.929 257.707 123.461 253.012 128.867C251.169 134.263 249.875 139.928 249.875 139.928C249.988 136.975 250.384 134.039 251.058 131.161C246.022 137.253 241.625 144.304 236.686 152.081L234.341 159.64L244.443 160.742C252.454 160.854 260.332 158.402 267.186 155.061L261.114 154.452Z" fill="#2A94F4"/>
</g>
<g opacity="0.55">
<path opacity="0.55" d="M25.8596 125.861C30.5198 131.897 36.4847 137.598 43.7085 141.055L53.2472 144.563L54.5062 136.75C53.5417 127.587 52.7243 119.343 50.9527 111.622C50.2752 114.498 49.3232 117.303 48.1098 119.998C48.1098 119.998 49.4703 114.348 50.2166 108.698C48.4165 101.769 45.4037 95.2139 41.3175 89.336C41.1754 93.2093 40.7489 100.195 39.4341 104.54C39.4341 104.54 40.3276 93.1383 39.2311 86.5185C36.5354 83.0767 37.2005 83.5945 33.2865 80.1425C33.3271 84.1224 33.1951 89.605 32.3372 93.3007C32.3873 88.4166 32.1381 83.534 31.5909 78.6804C28.8446 76.3656 21.8593 70.0758 18.453 67.7406C18.453 67.7406 14.0517 72.1368 13.6811 85.9296C16.0924 88.7369 18.4733 92.7525 23.0878 96.4837C23.0878 96.4837 20.9506 95.2602 13.6608 88.3004C13.7116 93.8439 12.9552 100.316 14.9655 106.195C17.2702 107.591 19.7983 108.104 26.814 112.388C26.814 112.388 19.7069 108.769 16.2955 109.647C18.3288 114.3 20.8093 118.744 23.7021 122.917L31.5808 127.993L25.8596 125.861Z" fill="#2A94F4"/>
</g>
<g opacity="0.55">
<path opacity="0.55" d="M32.8043 155.061C39.6626 158.402 47.5261 160.854 55.547 160.742L65.6492 159.64L63.3038 152.081C58.3695 144.304 53.9732 137.278 48.9374 131.161C49.6074 134.04 50.0017 136.975 50.1151 139.928C50.1151 139.928 48.8257 134.263 46.9779 128.867C42.2834 123.462 36.6704 118.93 30.3981 115.48C31.9971 119.033 34.7181 125.46 35.4745 129.938C35.4745 129.938 31.2103 119.328 27.2811 113.886C23.3367 112.002 24.1641 112.165 19.1232 110.84C20.9253 114.394 23.2453 119.358 24.1184 123.024C21.9938 118.627 19.6017 114.365 16.9555 110.261C13.468 109.408 4.43183 106.896 0.335102 106.297C0.335102 106.297 -1.6498 112.19 4.14755 124.709C7.55387 126.156 11.4729 128.689 17.2652 129.983C17.2652 129.983 14.8082 129.836 5.18315 126.846C7.72139 131.786 9.89413 137.923 14.3208 142.294C17.0012 142.517 19.4938 141.857 27.6821 142.568C27.6821 142.568 19.7222 142.487 17.0215 144.792C20.9123 148.056 25.1118 150.935 29.5604 153.386L38.8809 154.452L32.8043 155.061Z" fill="#2A94F4"/>
</g>
<path d="M152.457 181.911C227.472 181.911 288.283 172.972 288.283 161.945C288.283 150.918 227.472 141.979 152.457 141.979C77.4421 141.979 16.6305 150.918 16.6305 161.945C16.6305 172.972 77.4421 181.911 152.457 181.911Z" fill="#D3D3D3"/>
<path d="M70.7002 169.742C88.7783 169.742 103.433 167.997 103.433 165.844C103.433 163.69 88.7783 161.945 70.7002 161.945C52.6222 161.945 37.967 163.69 37.967 165.844C37.967 167.997 52.6222 169.742 70.7002 169.742Z" fill="#D3D3D3"/>
<path d="M258.302 16.4174V147.538C258.302 151.938 256.554 156.159 253.443 159.271C250.332 162.383 246.112 164.132 241.712 164.133H118.226C113.825 164.132 109.605 162.383 106.493 159.271C103.381 156.159 101.633 151.939 101.631 147.538V16.4174C101.683 12.0505 103.455 7.8802 106.561 4.81072C109.668 1.74124 113.859 0.0200511 118.226 0.0203619H241.722C246.087 0.0227382 250.275 1.74528 253.379 4.81461C256.482 7.88394 258.251 12.0527 258.302 16.4174Z" fill="#F2F2F2"/>
<path d="M118.226 164.133C113.825 164.132 109.605 162.383 106.493 159.271C103.381 156.159 101.633 151.939 101.631 147.538V16.4174C101.683 12.0505 103.455 7.8802 106.561 4.81072C109.668 1.74124 113.859 0.0200511 118.226 0.0203619H139.679V164.133H118.226Z" fill="#5B275A"/>
<path d="M160.214 19.443H151.635C149.45 19.443 147.68 21.2135 147.68 23.3976V31.9768C147.68 34.1609 149.45 35.9314 151.635 35.9314H160.214C162.398 35.9314 164.168 34.1609 164.168 31.9768V23.3976C164.168 21.2135 162.398 19.443 160.214 19.443Z" fill="#2A94F4"/>
<path d="M227.482 25.6261H168.194V28.9614H227.482V25.6261Z" fill="#D3D3D3"/>
<path d="M133.446 10.5134H108.413V13.8486H133.446V10.5134Z" fill="white"/>
<path d="M227.482 51.5415H147.68V52.8665H227.482V51.5415Z" fill="#D3D3D3"/>
<path d="M227.482 54.6332H147.68V55.9581H227.482V54.6332Z" fill="#D3D3D3"/>
<path d="M227.482 57.7247H147.68V59.0497H227.482V57.7247Z" fill="#D3D3D3"/>
<path d="M227.482 60.8163H147.68V62.1413H227.482V60.8163Z" fill="#D3D3D3"/>
<path d="M227.482 63.7607H147.68V65.0856H227.482V63.7607Z" fill="#D3D3D3"/>
<path d="M227.482 66.8523H147.68V68.1772H227.482V66.8523Z" fill="#D3D3D3"/>
<path d="M227.482 69.9437H147.68V71.2687H227.482V69.9437Z" fill="#D3D3D3"/>
<path d="M227.482 73.0354H147.68V74.3604H227.482V73.0354Z" fill="#D3D3D3"/>
<path d="M225.426 140.065H149.736C148.6 140.065 147.68 140.986 147.68 142.121V152.548C147.68 153.684 148.6 154.604 149.736 154.604H225.426C226.562 154.604 227.482 153.684 227.482 152.548V142.121C227.482 140.986 226.562 140.065 225.426 140.065Z" fill="white"/>
<path d="M128.831 25.6261H108.413V27.2963H128.831V25.6261Z" fill="white"/>
<path d="M121.526 30.7787H108.413V31.6113H121.526V30.7787Z" fill="white"/>
<path d="M121.526 34.312H108.413V35.1446H121.526V34.312Z" fill="white"/>
<path d="M121.526 37.8503H108.413V38.6828H121.526V37.8503Z" fill="white"/>
<path d="M134.425 27.6871C135.076 27.6871 135.603 27.1598 135.603 26.5094C135.603 25.8589 135.076 25.3316 134.425 25.3316C133.775 25.3316 133.248 25.8589 133.248 26.5094C133.248 27.1598 133.775 27.6871 134.425 27.6871Z" fill="white"/>
<path d="M128.831 51.3435H108.413V53.0137H128.831V51.3435Z" fill="white"/>
<path d="M121.526 56.4962H108.413V57.3288H121.526V56.4962Z" fill="white"/>
<path d="M121.526 60.0294H108.413V60.862H121.526V60.0294Z" fill="white"/>
<path d="M121.526 63.5678H108.413V64.4003H121.526V63.5678Z" fill="white"/>
<path d="M134.425 53.4046C135.076 53.4046 135.603 52.8773 135.603 52.2269C135.603 51.5765 135.076 51.0492 134.425 51.0492C133.775 51.0492 133.248 51.5765 133.248 52.2269C133.248 52.8773 133.775 53.4046 134.425 53.4046Z" fill="white"/>
<path d="M128.831 78.7312H108.413V80.4014H128.831V78.7312Z" fill="white"/>
<path d="M121.526 83.8839H108.413V84.7164H121.526V83.8839Z" fill="white"/>
<path d="M121.526 87.4171H108.413V88.2496H121.526V87.4171Z" fill="white"/>
<path d="M121.526 90.9503H108.413V91.7828H121.526V90.9503Z" fill="white"/>
<path d="M134.425 80.7923C135.076 80.7923 135.603 80.265 135.603 79.6145C135.603 78.9641 135.076 78.4368 134.425 78.4368C133.775 78.4368 133.248 78.9641 133.248 79.6145C133.248 80.265 133.775 80.7923 134.425 80.7923Z" fill="white"/>
<path d="M90.8893 94.7932H52.2979C45.37 94.7932 39.7539 100.409 39.7539 107.337V153.178C39.7539 160.106 45.37 165.722 52.2979 165.722H90.8893C97.8172 165.722 103.433 160.106 103.433 153.178V107.337C103.433 100.409 97.8172 94.7932 90.8893 94.7932Z" fill="#431540"/>
<path d="M60.8265 120.643C62.5018 120.643 64.177 120.643 65.8573 120.643C68.0808 120.643 69.8474 121.795 70.35 123.638C70.9338 125.765 70.1317 127.592 68.1214 128.76C67.5213 129.085 66.8436 129.24 66.1619 129.207C62.649 129.207 59.1361 129.207 55.6231 129.207C54.6548 129.223 53.7106 128.904 52.9509 128.304C52.1912 127.703 51.6627 126.858 51.4553 125.912C51.2385 124.991 51.3313 124.025 51.7195 123.162C52.1078 122.299 52.7697 121.589 53.6027 121.14C54.2016 120.817 54.8775 120.665 55.5571 120.699H60.8265V120.643Z" fill="#2A94F4"/>
<path d="M82.0951 120.543C81.2303 122.118 80.3877 123.706 79.503 125.264C78.988 126.177 78.1524 126.866 77.1582 127.198C76.164 127.529 75.0821 127.48 74.1222 127.059C73.1119 126.648 72.3056 125.853 71.88 124.849C71.4545 123.845 71.4443 122.713 71.8518 121.701C72.2171 120.819 72.6455 119.964 73.1338 119.144C74.4603 116.728 75.7622 114.304 77.1086 111.904C78.4549 109.504 80.858 108.872 83.1335 110.139C85.2027 111.275 85.815 113.788 84.5877 116.045C83.7619 117.549 82.9362 119.053 82.1129 120.553L82.0951 120.543Z" fill="#2DA974"/>
<path d="M82.234 131.329C83.9905 131.329 85.7419 131.329 87.4983 131.329C88.0549 131.309 88.6097 131.403 89.129 131.604C89.6484 131.805 90.1216 132.11 90.5201 132.499C90.9187 132.888 91.2342 133.353 91.4478 133.868C91.6613 134.382 91.7684 134.934 91.7626 135.491C91.788 138.085 90.194 139.786 87.5796 139.827C84.0717 139.872 80.5639 139.852 77.056 139.827C76.4792 139.852 75.9031 139.761 75.3627 139.557C74.8224 139.353 74.3291 139.042 73.9126 138.642C73.4961 138.242 73.1653 137.762 72.94 137.23C72.7148 136.698 72.5999 136.126 72.6023 135.549C72.6047 134.971 72.7244 134.4 72.9541 133.871C73.1837 133.341 73.5186 132.863 73.9384 132.467C74.3581 132.07 74.8541 131.763 75.3961 131.564C75.9381 131.365 76.5149 131.278 77.0916 131.308C78.8023 131.344 80.5182 131.308 82.234 131.308V131.329Z" fill="#E5A42C"/>
<path d="M72.7106 144.619C72.6801 141.974 72.6801 141.969 75.3199 141.979C76.0364 141.96 76.7533 141.983 77.4673 142.045C79.7771 142.329 81.3051 144.259 81.1883 146.675C81.1036 147.717 80.633 148.689 79.8686 149.402C79.1042 150.115 78.1011 150.516 77.0561 150.528C75.9671 150.588 74.899 150.213 74.0862 149.485C73.2734 148.758 72.7823 147.738 72.7207 146.65C72.6649 145.974 72.7106 145.294 72.7106 144.619Z" fill="#E5A42C"/>
<path d="M63.0176 137.646C62.9871 135.001 62.9871 134.996 65.6269 135.006C66.3434 134.988 67.0603 135.01 67.7743 135.072C70.0841 135.357 71.6121 137.286 71.4953 139.702C71.4106 140.744 70.94 141.716 70.1756 142.429C69.4112 143.142 68.4081 143.544 67.3631 143.555C66.2741 143.615 65.206 143.24 64.3932 142.513C63.5804 141.786 63.0893 140.766 63.0278 139.677C62.9719 139.002 63.0176 138.321 63.0176 137.646Z" fill="#E5A42C"/>
<path d="M67.6746 118.506C66.5324 118.47 65.2531 118.627 64.0856 117.891C63.2383 117.386 62.5921 116.603 62.2568 115.676C61.9214 114.748 61.9176 113.733 62.246 112.803C62.5744 111.873 63.2147 111.085 64.0581 110.574C64.9015 110.062 65.896 109.859 66.8725 109.997C67.7881 110.116 68.6382 110.535 69.2897 111.19C69.9411 111.844 70.3569 112.696 70.4718 113.612C70.5987 114.998 70.5175 116.399 70.5428 117.79C70.5428 118.297 70.3195 118.516 69.822 118.511C69.1468 118.5 68.4716 118.506 67.6746 118.506Z" fill="#2A94F4"/>
<path d="M56.9684 131.344C59.8721 131.344 59.8569 131.344 59.8772 134.248C59.8772 135.898 59.9178 137.497 58.5218 138.771C56.8922 140.258 54.4961 140.294 52.6533 138.71C51.8918 138.023 51.414 137.077 51.3135 136.056C51.213 135.035 51.4971 134.014 52.1102 133.192C53.3336 131.578 53.9428 131.344 56.9684 131.344Z" fill="#D51B52"/>
<path d="M86.1429 129.171C83.361 129.171 83.3762 129.171 83.3458 126.425C83.3458 124.851 83.295 123.308 84.4677 122.029C85.095 121.359 85.9215 120.908 86.8248 120.745C87.728 120.582 88.6598 120.714 89.482 121.122C90.3042 121.53 90.973 122.192 91.3893 123.01C91.8056 123.828 91.9472 124.758 91.793 125.663C91.3514 127.694 89.8386 129.075 87.9197 129.166C87.341 129.197 86.7419 129.171 86.1429 129.171Z" fill="#2DA974"/>
<path d="M87.3511 32.6418C90.8539 33.52 97.3112 36.6624 98.6615 42.0282C100.692 50.0897 96.631 61.923 103.063 73.5024C105.093 77.193 67.5275 82.1325 67.5275 82.1325L60.3188 41.419C60.3188 41.419 69.355 32.5809 71.2028 32.0022C75.0407 30.7483 80.3507 30.8803 87.3511 32.6418Z" fill="#AD7FFB"/>
<path d="M60.2376 41.4444C58.9329 44.6985 55.6383 64.0602 59.3136 68.6239C59.735 69.1316 57.4049 69.9743 57.8262 72.3805C57.8973 72.7816 58.5979 74.7056 58.5979 74.7056L61.6031 75.4823L70.6748 70.3246L68.9488 68.2077H68.1315C67.9149 68.0036 67.7505 67.7504 67.6524 67.4694C67.5543 67.1884 67.5254 66.8879 67.568 66.5933C67.7863 65.705 65.4867 64.2632 62.0194 49.2368C60.9838 44.8355 60.5269 40.7236 60.2376 41.4444Z" fill="#AD7FFB"/>
<path d="M63.7506 67.7051L66.431 67.1162L67.5173 66.9436C67.5522 67.4308 67.7654 67.8881 68.1164 68.2279L66.035 68.2939L63.5983 68.8016L60.6539 70.4768L63.7506 67.7051Z" fill="#D3D3D3"/>
<path d="M67.5884 70.2078C66.2386 70.2331 64.917 70.5979 63.7455 71.2688C62.4002 72.0962 61.1615 73.8984 62.3951 74.8731C63.3833 75.5948 64.4351 76.2251 65.5375 76.7565C65.5375 76.7565 70.2637 76.8834 67.5884 70.2078Z" fill="#D3D3D3"/>
<path d="M62.4052 74.9442L63.6692 74.6701C63.6692 74.6701 68.0198 74.2741 68.6391 74.6142C69.2585 74.9543 71.2535 76.3047 71.2535 76.3047L71.6647 76.6804C71.6647 76.6804 70.6951 77.2845 69.3854 76.3707C68.0756 75.4569 67.9639 76.1575 67.9639 76.1575L68.1822 77.32V78.7973L68.3853 79.4217C68.3853 79.4217 68.568 79.7618 68.4259 79.8836C68.3181 79.9872 68.1841 80.0594 68.0383 80.0925C67.8925 80.1256 67.7404 80.1183 67.5984 80.0715L66.2735 77.7617L65.913 80.2999C65.8485 80.4084 65.7626 80.5026 65.6605 80.5768C65.5584 80.651 65.4422 80.7036 65.3191 80.7314C64.9282 80.8126 64.9282 80.7314 64.9282 80.7314L64.6287 80.0918C64.5931 80.2632 64.5 80.4172 64.3647 80.5284C64.1344 80.688 63.8577 80.7665 63.5779 80.7517L63.6997 78.1069L63.1565 79.4521C63.0184 79.6631 62.8066 79.8151 62.5626 79.8786C62.126 79.9801 62.0042 80.0156 62.0042 80.0156L62.4052 74.9442Z" fill="#E4EEF3"/>
<path d="M84.9399 64.5882C84.9399 64.5882 81.7823 72.5887 74.1929 74.7412C72.8781 75.1117 72.071 76.5281 72.7055 76.985C73.5178 77.5688 74.6295 77.6957 76.5332 77.6906C80.503 77.6906 85.9044 76.4469 89.6407 72.8324C95.169 67.4868 96.9102 65.0552 96.3518 62.3647C95.7934 59.6741 84.9399 64.5882 84.9399 64.5882Z" fill="#FCD0B1"/>
<path d="M97.5853 39.3377C99.1945 41.9775 100.124 46.2164 100.124 52.2828C100.124 56.9785 96.0623 64.6694 95.4379 67.035C95.3364 67.431 95.0876 69.1214 95.0876 69.1214L90.595 73.5278L81.5842 67.436L84.3255 63.2327L85.1428 63.3139C85.1428 63.3139 85.6505 60.9991 85.5185 60.0955C85.3865 59.1918 88.0161 47.0793 89.3208 39.3123C90.0569 34.8298 95.9913 36.7182 97.5853 39.3377Z" fill="#AD7FFB"/>
<path d="M89.5187 63.1515L86.8942 62.3393L85.8281 62.0753C85.7534 62.5569 85.504 62.9942 85.1276 63.3038L87.1937 63.5424L89.5746 64.2734L92.3717 66.1923L89.5187 63.1515Z" fill="#AD7FFB"/>
<path d="M74.7716 74.7005L70.2027 73.4415C70.2027 73.4415 68.9031 75.1878 69.1519 75.6193C69.4006 76.0508 69.1519 78.6348 69.1519 78.6348L71.3805 80.5232L73.1877 79.9242C73.1877 79.9242 73.3146 79.1373 72.6801 79.0561C72.0455 78.9749 73.0963 78.5485 73.4263 78.3454C73.7563 78.1424 76.391 76.7869 74.7716 74.7005Z" fill="#FCD0B1"/>
<path d="M82.2288 33.4693C82.359 33.8484 82.3344 34.2635 82.1605 34.6247C81.9866 34.9858 81.6773 35.2638 81.2998 35.3984L76.2589 37.165C75.8798 37.2952 75.4646 37.2706 75.1035 37.0967C74.7424 36.9228 74.4644 36.6135 74.3298 36.236L71.157 27.1897C71.0268 26.8106 71.0514 26.3955 71.2253 26.0344C71.3992 25.6732 71.7084 25.3952 72.086 25.2606L77.1269 23.494C77.506 23.3639 77.9212 23.3884 78.2823 23.5623C78.6434 23.7362 78.9214 24.0455 79.056 24.423L82.2288 33.4693Z" fill="#FCD0B1"/>
<path d="M70.4413 38.0635C70.5041 38.2926 70.6115 38.5071 70.7573 38.6946C70.9031 38.8822 71.0844 39.0391 71.2909 39.1565C71.4975 39.2739 71.7251 39.3495 71.9608 39.3788C72.1966 39.4082 72.4358 39.3908 72.6648 39.3276L80.5232 37.165C80.7528 37.1022 80.9678 36.9946 81.1557 36.8485C81.3437 36.7023 81.5009 36.5205 81.6183 36.3134C81.7358 36.1063 81.8112 35.8781 81.8402 35.6418C81.8691 35.4055 81.8512 35.1657 81.7872 34.9364L78.5941 23.3011C78.465 22.839 78.1578 22.4469 77.7401 22.2109C77.3223 21.9749 76.828 21.9142 76.3655 22.0421L68.5071 24.2047C68.278 24.2676 68.0636 24.375 67.876 24.5208C67.6885 24.6666 67.5315 24.8479 67.4141 25.0544C67.2967 25.2609 67.2212 25.4886 67.1918 25.7243C67.1625 25.96 67.1799 26.1992 67.2431 26.4282L70.4413 38.0635Z" fill="#FCD0B1"/>
<path d="M67.8828 28.8294C67.8828 28.8294 66.5172 27.9969 66.1314 27.3572C66.0061 26.9327 65.9869 26.484 66.0754 26.0503C66.1639 25.6166 66.3575 25.2113 66.6391 24.8698C67.3752 24.1185 68.36 24.8698 68.36 24.8698C68.36 24.8698 67.1822 26.0323 67.1873 26.342C67.1924 26.6516 67.8828 28.8294 67.8828 28.8294Z" fill="#0B4870"/>
<path d="M80.8278 28.3167C80.8278 28.3167 80.7821 23.5143 80.2034 22.2706C79.6247 21.0269 79.2287 20.1537 77.5839 20.4481C75.132 20.8898 75.2386 21.4076 73.8781 21.0015C72.5176 20.5954 69.9387 19.4176 69.1671 19.443C67.8878 19.4785 66.1212 20.4025 66.6644 22.6767C66.7934 23.0893 66.8168 23.5275 66.7326 23.9515C66.6483 24.3754 66.459 24.7714 66.1821 25.1033C66.3293 25.281 66.8218 25.352 67.7051 25.5196C70.1824 26.0272 71.5581 25.8698 73.1065 24.9713C74.6548 24.0728 77.5179 22.2706 78.2185 23.4077C78.9191 24.5449 79.8227 28.3675 80.046 28.6162C80.2694 28.8649 80.5943 28.6162 80.8278 28.3167Z" fill="#0B4870"/>
<path d="M79.315 32.5098C79.3356 32.5864 79.3711 32.6582 79.4196 32.721C79.4681 32.7837 79.5286 32.8362 79.5975 32.8754C79.6665 32.9146 79.7425 32.9397 79.8213 32.9493C79.9 32.9589 79.9799 32.9527 80.0562 32.9312L81.7517 32.4642C81.8283 32.4436 81.9001 32.4081 81.9629 32.3596C82.0256 32.3111 82.0781 32.2506 82.1173 32.1816C82.1565 32.1127 82.1816 32.0366 82.1912 31.9579C82.2008 31.8792 82.1946 31.7993 82.1731 31.723L81.3202 28.6213C81.2775 28.4673 81.1756 28.3365 81.0367 28.2575C80.8978 28.1786 80.7332 28.1578 80.5791 28.1999L78.8784 28.6669C78.7245 28.7096 78.5937 28.8116 78.5147 28.9505C78.4358 29.0894 78.415 29.254 78.4571 29.4081L79.315 32.5098Z" fill="#FCD0B1"/>
<path d="M69.1874 35.2765C69.2302 35.4318 69.3327 35.5639 69.4725 35.6438C69.6124 35.7237 69.7782 35.745 69.9337 35.7029L71.6292 35.2359C71.706 35.2148 71.7779 35.1787 71.8407 35.1297C71.9035 35.0807 71.956 35.0198 71.9951 34.9504C72.0343 34.8811 72.0593 34.8047 72.0688 34.7256C72.0784 34.6465 72.0721 34.5663 72.0505 34.4897L71.1926 31.3879C71.1457 31.2422 71.0451 31.1197 70.9113 31.0452C70.7775 30.9708 70.6204 30.9499 70.4718 30.9869L68.7762 31.4539C68.6996 31.4745 68.6279 31.51 68.5651 31.5585C68.5024 31.607 68.4499 31.6675 68.4107 31.7364C68.3715 31.8054 68.3464 31.8814 68.3368 31.9602C68.3272 32.0389 68.3333 32.1188 68.3549 32.1951L69.1874 35.2765Z" fill="#FCD0B1"/>
<path d="M80.3556 29.5452L82.036 35.6369C82.4167 37.0177 82.701 40.2058 74.8984 42.3481C70.2788 43.6222 69.5123 40.1804 69.2077 39.0686C68.9742 38.2158 69.2331 35.4136 69.5884 34.7892L70.0961 36.6827C70.2641 36.0389 70.5967 35.45 71.0613 34.9738C71.526 34.4976 72.1066 34.1505 72.746 33.9668C76.2995 32.9921 77.6651 34.8399 79.2185 34.378C80.4166 34.0328 80.7821 31.8245 80.3556 29.5452Z" fill="#0B4870"/>
<path d="M75.0406 36.571L72.6191 37.2411C72.465 37.2832 72.3004 37.2625 72.1615 37.1835C72.0226 37.1045 71.9207 36.9737 71.8779 36.8198L71.7815 36.4797L75.3706 35.4644L75.462 35.8045C75.4874 35.8824 75.4966 35.9648 75.489 36.0464C75.4814 36.1281 75.457 36.2073 75.4175 36.2791C75.378 36.351 75.3242 36.414 75.2594 36.4642C75.1945 36.5144 75.1201 36.5508 75.0406 36.571Z" fill="#FCD0B1"/>
<path d="M36.7131 83.0564C37.8299 86.1429 57.4303 97.5193 64.0043 96.8492L83.8026 97.7884C100.641 95.7578 108.606 69.5885 108.606 69.5885C107.931 63.0246 91.3463 72.5379 85.4372 75.4874C76.0711 80.1577 70.1519 80.3963 70.1519 80.3963C63.8875 81.036 56.6282 76.2082 48.719 76.0407C40.0382 75.8529 34.9363 78.1982 36.7131 83.0564Z" fill="#0B4870"/>
<path d="M79.782 79.914V79.0612L45.6985 78.4419V79.2642C45.6957 79.2742 45.6957 79.2847 45.6985 79.2947L45.7848 79.447C46.2112 80.1679 46.993 80.31 47.8916 80.3303L77.5788 80.8684C78.4824 80.8684 79.2693 80.772 79.716 80.0663L79.782 79.914Z" fill="#D3D3D3"/>
<path d="M71.5684 79.8988L71.6496 80.0257C71.7812 80.2074 71.9556 80.3539 72.1572 80.4522L77.3403 80.5486C78.2033 80.5486 78.9597 80.4775 79.3963 79.9039L79.4775 79.7821V79.381L71.5836 79.2389L71.5684 79.8988Z" fill="#F2F2F2"/>
<path d="M50.3122 79.1588L50.3007 79.7375L67.3322 80.0782L67.3438 79.4994L50.3122 79.1588Z" fill="#D3D3D3"/>
<path d="M71.3958 78.8835L67.2838 62.0601C67.2214 61.8347 67.0899 61.6346 66.9077 61.4879C66.7256 61.3413 66.502 61.2555 66.2685 61.2428L42.3583 60.8113C42.2602 60.8042 42.1619 60.8215 42.0722 60.8618C41.9825 60.902 41.9041 60.964 41.8443 61.042C41.7844 61.12 41.7448 61.2116 41.7291 61.3087C41.7134 61.4057 41.722 61.5052 41.7542 61.5981L45.8712 78.4165L71.3958 78.8835Z" fill="#F2F2F2"/>
<path d="M58.0344 69.8676C58.0971 70.0469 58.1142 70.2389 58.0844 70.4265C58.0545 70.614 57.9785 70.7912 57.8633 70.9422C57.7481 71.0931 57.5972 71.2131 57.4241 71.2914C57.2511 71.3697 57.0614 71.4037 56.8719 71.3906C56.4261 71.3608 56.0006 71.1928 55.6548 70.9098C55.309 70.6268 55.0602 70.243 54.9428 69.8118C54.8813 69.6321 54.8652 69.44 54.8959 69.2526C54.9265 69.0651 55.003 68.8882 55.1186 68.7375C55.2341 68.5868 55.3851 68.4669 55.5582 68.3887C55.7312 68.3104 55.9209 68.2761 56.1104 68.2889C56.5556 68.3189 56.9803 68.4871 57.3252 68.7702C57.6701 69.0532 57.9181 69.4369 58.0344 69.8676Z" fill="#D3D3D3"/>
<path d="M86.8283 102.144C84.4677 102.55 82.6707 99.8139 82.6707 99.8139L76.5789 95.0217L77.8632 91.7778L89.7321 97.1081C89.7321 97.1081 89.1838 101.743 86.8283 102.144Z" fill="#FCD0B1"/>
<path d="M82.6553 99.6261C82.74 100.151 82.8918 100.663 83.1071 101.149C83.5589 102.398 84.1224 102.829 84.7062 103.002C86.9804 103.672 88.6201 103.337 94.0875 104.393C99.5549 105.449 101.195 104.652 102.804 102.129C104.413 99.6058 102.743 97.631 100.073 97.4279C96.2095 97.1335 94.0621 97.5752 92.0519 97.2706C89.9451 96.9508 89.808 96.4786 88.5745 95.7223C87.4221 95.0115 86.356 99.2402 87.4526 100.22C88.4171 101.098 83.4827 101.23 82.6553 99.6261Z" fill="#0B4870"/>
<path d="M83.8331 102.058C86.1074 102.723 87.7471 102.388 93.2195 103.438C98.692 104.489 100.327 103.697 101.931 101.179C102.672 100.012 102.707 98.9712 102.276 98.1641C103.479 98.9915 103.89 100.438 102.809 102.139C101.205 104.677 99.5651 105.454 94.0927 104.403C88.6202 103.352 86.9856 103.682 84.7113 103.012C84.4324 102.924 84.175 102.779 83.9556 102.586C83.7362 102.393 83.5596 102.156 83.4371 101.89C83.5633 101.959 83.696 102.015 83.8331 102.058Z" fill="#CCE9FF"/>
<path d="M82.6553 99.7022C82.6531 99.6769 82.6531 99.6514 82.6553 99.6261C82.6722 99.656 82.6908 99.6848 82.7112 99.7124L82.6553 99.7022Z" fill="white"/>
<path d="M94.4886 101.596C94.6663 101.662 94.8186 101.332 94.8744 100.865C94.9823 99.9052 95.1951 98.9604 95.509 98.0473C95.6664 97.5853 95.6613 97.1792 95.4684 97.1284C95.2755 97.0777 94.9607 97.4076 94.8186 97.8544C94.5195 98.7592 94.3187 99.6936 94.2196 100.641C94.1739 101.103 94.3313 101.55 94.4886 101.596Z" fill="white"/>
<path d="M92.8083 101.291C92.9911 101.327 93.1637 101.002 93.2144 100.57C93.3209 99.6644 93.5304 98.7736 93.8388 97.9152C93.9911 97.4837 93.981 97.1081 93.7779 97.0827C93.5749 97.0573 93.2703 97.3822 93.1129 97.8137C92.8158 98.6628 92.6182 99.5436 92.524 100.438C92.4631 100.87 92.6103 101.245 92.8083 101.291Z" fill="white"/>
<path d="M91.0164 101.21C91.2093 101.21 91.3971 100.895 91.4682 100.443C91.6176 99.5076 91.866 98.5903 92.2093 97.7071C92.3819 97.2553 92.3819 96.8797 92.1687 96.8695C91.9555 96.8594 91.6204 97.2096 91.4529 97.6564C91.1208 98.5298 90.8859 99.4372 90.7524 100.362C90.6864 100.804 90.8234 101.19 91.0164 101.21Z" fill="white"/>
<path d="M86.412 94.316C86.412 94.316 44.5361 77.1118 42.14 77.0865C34.0531 77.0103 35.906 85.2088 40.0078 89.0416C44.8407 93.5799 81.6096 101.89 81.6096 101.89L86.412 94.316Z" fill="#0B4870"/>
<path d="M69.7966 97.3112L81.2289 86.478L76.3605 81.6553L63.8774 94.7678L69.7966 97.3112Z" fill="#FCD0B1"/>
<path d="M67.4259 88.7929C67.4259 88.7929 96.5193 62.1363 98.4788 61.3393C105.124 58.6487 109.236 65.9792 109.002 68.5072C108.703 71.7917 79.1424 98.4889 79.1424 98.4889L67.4259 88.7929Z" fill="#0B4870"/>
<path d="M50.1913 98.1539C49.511 98.7833 49.3943 100.631 49.3943 100.631C49.3943 100.631 59.1056 104.301 62.5119 104.367C63.8723 104.272 65.2167 104.016 66.5173 103.606C66.7812 103.535 67.3701 102.875 67.6189 102.794C68.0859 102.662 68.1925 103.114 68.5885 102.987C69.2058 102.818 69.8071 102.595 70.3855 102.322C72.4415 97.966 71.746 95.8187 71.746 95.8187C71.746 95.8187 67.2838 97.098 68.0504 96.0979C69.685 93.9658 65.0045 91.7778 63.9638 92.9149C59.8112 97.4888 52.161 96.3365 50.1913 98.1539Z" fill="#0B4870"/>
<path d="M49.6582 99.0625C52.6381 100.245 58.9126 102.692 60.1614 102.779C65.2684 103.144 68.8422 101.332 71.2282 100.24C70.9886 100.943 70.709 101.631 70.3906 102.301C69.8121 102.575 69.2108 102.798 68.5935 102.966C68.1975 103.093 68.0858 102.641 67.6239 102.773C67.3751 102.855 66.7863 103.515 66.5223 103.586C65.2218 103.996 63.8773 104.252 62.5169 104.347C59.1106 104.281 49.3993 100.611 49.3993 100.611C49.4237 100.086 49.5106 99.5665 49.6582 99.0625Z" fill="#CCE9FF"/>
<path d="M56.5115 96.235C56.4252 96.4025 56.8008 96.6005 57.3491 96.7427C58.47 96.9723 59.5677 97.3037 60.6285 97.7325C61.1362 97.9508 61.6438 98.0016 61.7149 97.8189C61.786 97.6361 61.4205 97.2807 60.8976 97.0675C59.8478 96.6509 58.7619 96.3314 57.6537 96.1132C57.1156 95.9659 56.6029 96.0675 56.5115 96.235Z" fill="white"/>
<path d="M58.6893 95.4583C58.608 95.6258 58.9786 95.8694 59.5117 96.0268C60.6032 96.3443 61.6634 96.7606 62.6794 97.2705C63.187 97.5294 63.6541 97.6056 63.7251 97.4127C63.7962 97.2198 63.4409 96.8289 62.9332 96.5802C61.9258 96.0855 60.8758 95.6828 59.7959 95.377C59.268 95.24 58.7959 95.2958 58.6893 95.4583Z" fill="white"/>
<path d="M60.7909 94.7882C60.7096 94.9709 61.0701 95.2501 61.5879 95.443C62.6444 95.8494 63.6636 96.3471 64.6338 96.9304C65.1414 97.2249 65.5678 97.3315 65.6491 97.1284C65.7303 96.9253 65.3749 96.4989 64.8927 96.2146C63.9242 95.6407 62.9045 95.1581 61.8468 94.7729C61.334 94.5851 60.8619 94.6105 60.7909 94.7882Z" fill="white"/>
</g>
<defs>
<clipPath id="clip0_107:559">
<rect width="300" height="181.911" fill="white"/>
</clipPath>
</defs>
</svg>
