<svg width="50" height="50" viewBox="0 0 50 50" fill="none" xmlns="http://www.w3.org/2000/svg">
<path d="M38.0085 17.133C38.0085 18.2071 36.7937 19.1079 36.529 20.0988C36.256 21.1252 36.8483 22.5105 36.3297 23.4086C35.811 24.3067 34.3001 24.5005 33.5618 25.2334C32.8234 25.9663 32.6459 27.4745 31.7356 28.0013C30.8252 28.5282 29.4522 27.9276 28.4272 28.202C27.4363 28.4667 26.5355 29.6815 25.46 29.6815C24.3845 29.6815 23.4851 28.4667 22.4942 28.202C21.4692 27.929 20.0825 28.5213 19.1858 28.0013C18.2891 27.4813 18.0939 25.9732 17.3596 25.2334C16.6253 24.4937 15.1185 24.3189 14.5917 23.4086C14.0648 22.4982 14.6654 21.1252 14.3924 20.0988C14.1276 19.1079 12.9129 18.2071 12.9129 17.133C12.9129 16.0589 14.1276 15.1581 14.3924 14.1672C14.6654 13.1408 14.073 11.7555 14.5917 10.8574C15.1103 9.95934 16.6212 9.76553 17.3596 9.0326C18.098 8.29968 18.274 6.79152 19.1858 6.26468C20.0975 5.73785 21.4692 6.33838 22.4942 6.06405C23.4851 5.79927 24.3859 4.58455 25.46 4.58455C26.5341 4.58455 27.4363 5.79927 28.4272 6.06405C29.4522 6.33702 30.8375 5.74467 31.7356 6.26468C32.6337 6.78469 32.8275 8.29285 33.5618 9.0326C34.2961 9.77235 35.8029 9.94705 36.3297 10.8574C36.8565 11.7678 36.2546 13.1408 36.529 14.1672C36.7937 15.1581 38.0085 16.0589 38.0085 17.133Z" fill="#00214E"/>
<path d="M18.4009 25.6933C19.6824 25.6933 20.7212 24.6545 20.7212 23.3731C20.7212 22.0917 19.6824 21.0528 18.4009 21.0528C17.1195 21.0528 16.0807 22.0917 16.0807 23.3731C16.0807 24.6545 17.1195 25.6933 18.4009 25.6933Z" fill="#E18477"/>
<path d="M19.2007 25.4204C20.4068 25.4204 21.3845 24.4427 21.3845 23.2366C21.3845 22.0306 20.4068 21.0528 19.2007 21.0528C17.9947 21.0528 17.017 22.0306 17.017 23.2366C17.017 24.4427 17.9947 25.4204 19.2007 25.4204Z" fill="#A76962"/>
<path d="M40.4556 40.1853C36.0204 43.6003 30.5741 45.4407 24.9766 45.416C19.3791 45.3913 13.9493 43.5029 9.54443 40.0489L16.1858 36.9356C16.5021 36.7869 16.8057 36.6126 17.0934 36.4143C17.1808 36.3542 17.2681 36.2914 17.3514 36.2259C18.0742 35.6729 18.6692 34.9703 19.0957 34.1663C19.6416 33.1359 19.8218 31.9976 19.83 30.8375C19.83 30.0568 19.7877 29.2761 19.7795 28.494C19.774 28.0618 19.7695 27.6292 19.7658 27.196L20.0388 27.3325L20.7458 27.7065L21.0747 27.7625L24.8799 28.4094L29.1273 29.1328L29.2556 33.5003L29.3184 35.6213V35.6663L30.9699 36.3378L40.4556 40.1853Z" fill="#E18477"/>
<path d="M29.302 35.1286L29.0918 35.1504C28.077 35.2394 27.0549 35.1066 26.0964 34.7614C25.1379 34.4161 24.266 33.8666 23.541 33.1509L19.804 28.7138C19.7917 28.318 19.7767 28.7138 19.7726 28.3166C19.7672 27.8844 19.7626 27.4517 19.759 27.0186L20.0319 27.1551L20.7417 27.5222L21.0706 27.5782L24.8758 28.2251L29.1232 28.9485L29.2515 33.316L29.302 35.1286Z" fill="#A76962"/>
<path d="M19.0984 18.6507C18.9905 18.7872 18.895 19.0533 18.7926 19.4846C18.5565 20.4851 19.5911 27.0541 19.789 28.9867L24.7598 32.6527C25.576 33.2621 26.515 33.6869 27.5116 33.8976C28.5082 34.1082 29.5387 34.0998 30.5317 33.8729C31.3329 33.6832 31.8406 33.5604 32.2023 32.9175C32.9011 31.6891 34.6167 27.4868 34.7286 24.5223C34.76 23.6816 34.7396 22.3986 34.2209 21.6807C33.9684 21.3326 33.8388 21.3258 33.9302 20.8331C34.0217 20.3404 34.1595 19.8136 34.2728 19.3031C34.5853 17.8932 34.8351 16.3004 34.3833 14.8974C34.1431 14.1467 33.7187 13.6499 33.1154 13.1681C32.4712 12.6522 32.205 12.6768 31.8188 13.4411C31.5581 13.9597 31.296 14.3965 30.7678 14.6913C30.0022 15.1157 29.4808 14.84 28.7206 14.7814C28.0545 14.7309 28.1255 15.2454 27.9795 15.7368C27.8282 16.2525 27.5014 16.6992 27.0555 16.9992C26.6496 17.2626 26.1766 17.404 25.6928 17.4067C25.209 17.4093 24.7345 17.2731 24.3257 17.0143C24.2125 16.933 24.0761 16.8904 23.9368 16.8928C23.4809 16.9174 23.4604 17.4647 23.3567 17.8577C23.137 18.6766 22.1802 19.1298 21.3299 19.0643C19.9432 18.9605 19.4491 18.188 19.0984 18.6507Z" fill="#E18477"/>
<path d="M30.0527 21.0924C30.0902 21.6226 30.1816 22.1476 30.3256 22.6593C30.4621 23.111 30.6696 23.3922 30.9426 23.7812C31.0368 23.9096 31.1186 24.0467 31.1869 24.1906C31.5472 25.0014 31.0681 25.9008 30.1564 25.9008H29.5927" stroke="#00214E" stroke-miterlimit="10"/>
<path d="M26.0905 27.2384C26.7467 27.9702 27.6455 28.44 28.621 28.5609" stroke="#00214E" stroke-miterlimit="10"/>
<path d="M23.5424 19.5747C24.8059 19.3138 26.1055 19.2773 27.3817 19.4669" stroke="#00214E" stroke-miterlimit="10"/>
<path d="M31.6018 19.5897C32.3822 19.4078 33.1868 19.3521 33.9848 19.4246" stroke="#00214E" stroke-miterlimit="10"/>
<path d="M40.4556 40.1853C36.0204 43.6003 30.5741 45.4407 24.9766 45.416C19.3791 45.3913 13.9493 43.5029 9.54443 40.0489L16.1858 36.9356C16.5021 36.7869 16.8057 36.6126 17.0934 36.4143C17.1808 36.3542 17.2681 36.2914 17.3514 36.2259C20.5656 38.5134 24.9523 39.956 28.7465 38.2486C29.6501 37.8392 30.4799 37.1786 30.9712 36.3296L40.4556 40.1853Z" fill="url(#paint0_linear_107:194)"/>
<path d="M27.7734 24.9399C27.6757 24.9911 27.5993 25.0753 27.5578 25.1776C27.5164 25.2798 27.5127 25.3935 27.5473 25.4982C27.5819 25.603 27.6525 25.6921 27.7467 25.7496C27.8409 25.807 27.9524 25.8292 28.0614 25.8121" stroke="#00214E" stroke-miterlimit="10"/>
<path d="M25.5459 20.8727C26.3798 20.8727 26.3798 22.1529 25.5459 22.1597H25.5091C24.6765 22.1529 24.6765 20.8795 25.5091 20.8727H25.5459Z" fill="#00214E"/>
<path d="M32.407 20.7826C33.1795 20.7826 33.1795 21.97 32.407 21.9769H32.3716C31.599 21.97 31.599 20.7894 32.3716 20.7826H32.407Z" fill="#00214E"/>
<defs>
<linearGradient id="paint0_linear_107:194" x1="9.54443" y1="40.82" x2="40.4556" y2="40.82" gradientUnits="userSpaceOnUse">
<stop stop-color="#315676"/>
<stop offset="1" stop-color="#E1B9E0"/>
</linearGradient>
</defs>
</svg>
